<svg xmlns="http://www.w3.org/2000/svg" width="960" height="320" viewBox="0 0 960 320" role="img" aria-labelledby="title desc">
  <title id="title">pdfdb logo</title>
  <desc id="desc">A database cylinder holding PDF pages beside the pdfdb wordmark.</desc>
  <rect width="960" height="320" rx="32" fill="#171717"/>
  <g transform="translate(78 58)">
    <ellipse cx="102" cy="36" rx="86" ry="30" fill="#7db4c7"/>
    <path d="M16 36v126c0 17 39 31 86 31s86-14 86-31V36" fill="#2d5f73"/>
    <path d="M16 36c0 17 39 31 86 31s86-14 86-31" fill="none" stroke="#d7efe9" stroke-width="8"/>
    <path d="M16 98c0 17 39 31 86 31s86-14 86-31M16 160c0 17 39 31 86 31s86-14 86-31" fill="none" stroke="#8dc6b8" stroke-width="7" opacity=".85"/>
    <g transform="translate(80 30) rotate(-7)">
      <rect x="0" y="0" width="116" height="146" rx="10" fill="#f5f5f2"/>
      <path d="M82 0v34h34" fill="#d8d5ca"/>
      <path d="M82 0l34 34" fill="none" stroke="#aaa69a" stroke-width="5"/>
      <text x="18" y="86" font-family="SFMono-Regular, ui-monospace, Menlo, monospace" font-size="31" font-weight="700" fill="#171717">PDF</text>
      <path d="M18 104h80M18 122h58" stroke="#2d5f73" stroke-width="8" stroke-linecap="round"/>
    </g>
  </g>
  <g transform="translate(326 102)">
    <text x="0" y="67" font-family="SFMono-Regular, ui-monospace, Menlo, monospace" font-size="92" font-weight="800" fill="#f5f5f2">pdfdb</text>
    <text x="4" y="112" font-family="Inter, ui-sans-serif, system-ui, sans-serif" font-size="28" fill="#d6d2c4">PDFs as database state</text>
  </g>
</svg>
