<svg xmlns="http://www.w3.org/2000/svg" width="960" height="320" viewBox="0 0 960 320" role="img" aria-labelledby="title desc">
  <title id="title">pdfdb logo</title>
  <desc id="desc">Three stacked database cylinders for PDFs, with a PostgreSQL elephant homage on the right.</desc>
  <rect width="960" height="320" rx="32" fill="#171717"/>
  <g transform="translate(64 64)">
    <g transform="translate(0 0)">
      <ellipse cx="78" cy="28" rx="64" ry="23" fill="#d7efe9"/>
      <path d="M14 28v55c0 13 29 24 64 24s64-11 64-24V28" fill="#7db4c7"/>
      <path d="M14 28c0 13 29 24 64 24s64-11 64-24M14 82c0 13 29 24 64 24s64-11 64-24" fill="none" stroke="#f5f5f2" stroke-width="6"/>
      <text x="45" y="75" font-family="SFMono-Regular, ui-monospace, Menlo, monospace" font-size="28" font-weight="800" fill="#171717">PDF</text>
    </g>
    <g transform="translate(0 56)">
      <ellipse cx="78" cy="28" rx="64" ry="23" fill="#d7efe9"/>
      <path d="M14 28v55c0 13 29 24 64 24s64-11 64-24V28" fill="#8dc6b8"/>
      <path d="M14 28c0 13 29 24 64 24s64-11 64-24M14 82c0 13 29 24 64 24s64-11 64-24" fill="none" stroke="#f5f5f2" stroke-width="6"/>
      <text x="45" y="75" font-family="SFMono-Regular, ui-monospace, Menlo, monospace" font-size="28" font-weight="800" fill="#171717">PDF</text>
    </g>
    <g transform="translate(0 112)">
      <ellipse cx="78" cy="28" rx="64" ry="23" fill="#d7efe9"/>
      <path d="M14 28v55c0 13 29 24 64 24s64-11 64-24V28" fill="#2d5f73"/>
      <path d="M14 28c0 13 29 24 64 24s64-11 64-24M14 82c0 13 29 24 64 24s64-11 64-24" fill="none" stroke="#f5f5f2" stroke-width="6"/>
      <text x="45" y="75" font-family="SFMono-Regular, ui-monospace, Menlo, monospace" font-size="28" font-weight="800" fill="#f5f5f2">PDF</text>
    </g>
  </g>
  <g transform="translate(270 100)">
    <text x="0" y="66" font-family="SFMono-Regular, ui-monospace, Menlo, monospace" font-size="88" font-weight="800" fill="#f5f5f2">pdfdb</text>
    <text x="4" y="112" font-family="Inter, ui-sans-serif, system-ui, sans-serif" font-size="27" fill="#d6d2c4">PDFs as database state</text>
  </g>
  <g transform="translate(760 76)" fill="none" stroke="#8dc6b8" stroke-linecap="round" stroke-linejoin="round">
    <path d="M55 30c18-18 51-10 65 12 16 25 6 59-22 75-14 8-31 11-46 7-14-4-25-14-30-27" stroke-width="12"/>
    <path d="M73 48c-12 5-23 20-24 40-1 23 11 41 32 48 17 6 40 2 55-13" stroke-width="12"/>
    <path d="M112 74c22 6 35 21 35 41 0 22-17 43-44 51" stroke-width="12"/>
    <path d="M59 132c-11 23-27 40-48 47" stroke-width="12"/>
    <path d="M62 35c-15-9-34-10-49-1" stroke-width="12"/>
    <path d="M38 72c-17 0-29 9-32 24" stroke-width="12"/>
    <circle cx="87" cy="75" r="6" fill="#f5f5f2" stroke="none"/>
  </g>
</svg>
